<svg width="53" height="41" viewBox="0 0 53 41" fill="none" xmlns="http://www.w3.org/2000/svg">
<path d="M27.2125 21.0225C28.4797 19.9256 29.4962 18.5689 30.1928 17.0444C30.8895 15.52 31.25 13.8636 31.25 12.1875C31.25 9.03805 29.9989 6.0176 27.7719 3.79061C25.5449 1.56361 22.5244 0.3125 19.375 0.3125C16.2256 0.3125 13.2051 1.56361 10.9781 3.79061C8.75111 6.0176 7.5 9.03805 7.5 12.1875C7.49998 13.8636 7.86053 15.52 8.55717 17.0444C9.25382 18.5689 10.2703 19.9256 11.5375 21.0225C8.21283 22.528 5.39211 24.9591 3.41258 28.0253C1.43305 31.0915 0.378496 34.6629 0.375 38.3125C0.375 38.9424 0.625222 39.5465 1.07062 39.9919C1.51602 40.4373 2.12011 40.6875 2.75 40.6875C3.37989 40.6875 3.98398 40.4373 4.42938 39.9919C4.87478 39.5465 5.125 38.9424 5.125 38.3125C5.125 34.5332 6.62634 30.9086 9.29873 28.2362C11.9711 25.5638 15.5957 24.0625 19.375 24.0625C23.1543 24.0625 26.7789 25.5638 29.4513 28.2362C32.1237 30.9086 33.625 34.5332 33.625 38.3125C33.625 38.9424 33.8752 39.5465 34.3206 39.9919C34.766 40.4373 35.3701 40.6875 36 40.6875C36.6299 40.6875 37.234 40.4373 37.6794 39.9919C38.1248 39.5465 38.375 38.9424 38.375 38.3125C38.3715 34.6629 37.3169 31.0915 35.3374 28.0253C33.3579 24.9591 30.5372 22.528 27.2125 21.0225V21.0225ZM19.375 19.3125C17.9658 19.3125 16.5883 18.8946 15.4166 18.1117C14.2449 17.3288 13.3316 16.216 12.7924 14.9141C12.2531 13.6122 12.112 12.1796 12.3869 10.7975C12.6618 9.41537 13.3404 8.14581 14.3369 7.14936C15.3333 6.15292 16.6029 5.47433 17.985 5.19941C19.3671 4.92449 20.7997 5.06559 22.1016 5.60486C23.4035 6.14413 24.5163 7.05736 25.2992 8.22906C26.0821 9.40076 26.5 10.7783 26.5 12.1875C26.5 14.0772 25.7493 15.8894 24.4131 17.2256C23.0769 18.5618 21.2647 19.3125 19.375 19.3125ZM42.5075 20.0725C44.0274 18.3609 45.0203 16.2465 45.3665 13.9838C45.7128 11.7211 45.3977 9.40655 44.4592 7.31875C43.5207 5.23095 41.9988 3.45889 40.0766 2.21588C38.1545 0.972869 35.914 0.311888 33.625 0.3125C32.9951 0.3125 32.391 0.562723 31.9456 1.00812C31.5002 1.45352 31.25 2.05761 31.25 2.6875C31.25 3.31739 31.5002 3.92148 31.9456 4.36688C32.391 4.81228 32.9951 5.0625 33.625 5.0625C35.5147 5.0625 37.3269 5.81317 38.6631 7.14936C39.9993 8.48556 40.75 10.2978 40.75 12.1875C40.7466 13.4349 40.4158 14.6596 39.7906 15.7391C39.1655 16.8186 38.2678 17.715 37.1875 18.3388C36.8354 18.5419 36.5413 18.832 36.3334 19.1813C36.1254 19.5306 36.0107 19.9274 36 20.3338C35.9901 20.7369 36.083 21.136 36.2699 21.4934C36.4569 21.8507 36.7318 22.1546 37.0688 22.3762L37.995 22.9938L38.3037 23.16C41.1666 24.5178 43.5817 26.6655 45.2648 29.35C46.9479 32.0345 47.8288 35.1441 47.8037 38.3125C47.8037 38.9424 48.054 39.5465 48.4994 39.9919C48.9448 40.4373 49.5489 40.6875 50.1787 40.6875C50.8086 40.6875 51.4127 40.4373 51.8581 39.9919C52.3035 39.5465 52.5537 38.9424 52.5537 38.3125C52.5732 34.6679 51.6603 31.0789 49.902 27.8864C48.1436 24.6939 45.5982 22.0041 42.5075 20.0725V20.0725Z" fill="black"/>
</svg>
