<svg width="19" height="18" viewBox="0 0 19 18" fill="none" xmlns="http://www.w3.org/2000/svg">
<path fill-rule="evenodd" clip-rule="evenodd" d="M11.5429 1.06051C12.1901 0.79233 12.8838 0.654297 13.5844 0.654297C14.285 0.654297 14.9787 0.792331 15.626 1.06051C16.2732 1.32869 16.8613 1.72177 17.3565 2.21728C17.8519 2.71251 18.2449 3.30047 18.513 3.9476C18.7812 4.59483 18.9193 5.28856 18.9193 5.98915C18.9193 6.68975 18.7812 7.38348 18.513 8.03071C18.2449 8.67789 17.8519 9.2659 17.3564 9.76115C17.3564 9.76119 17.3563 9.76123 17.3563 9.76127L9.98974 17.1278C9.84909 17.2685 9.65832 17.3475 9.45941 17.3475C9.2605 17.3475 9.06973 17.2685 8.92908 17.1278L1.56241 9.76115C0.562016 8.76075 0 7.40393 0 5.98915C0 4.57438 0.562017 3.21755 1.56241 2.21716C2.56281 1.21676 3.91964 0.654743 5.33441 0.654743C6.74918 0.654742 8.10601 1.21676 9.10641 2.21716L9.45941 2.57016L9.81229 2.21728C10.3076 1.72177 10.8956 1.32869 11.5429 1.06051ZM13.5844 2.1543C13.0809 2.1543 12.5822 2.25351 12.117 2.44626C11.6518 2.63902 11.2292 2.92154 10.8732 3.27769L10.8731 3.27782L9.98974 4.16115C9.84909 4.3018 9.65832 4.38082 9.45941 4.38082C9.2605 4.38082 9.06973 4.3018 8.92908 4.16115L8.04575 3.27782C7.32665 2.55872 6.35136 2.15474 5.33441 2.15474C4.31746 2.15474 3.34216 2.55872 2.62307 3.27782C1.90398 3.99691 1.5 4.9722 1.5 5.98915C1.5 7.0061 1.90398 7.9814 2.62307 8.70049L9.45941 15.5368L16.2957 8.70049L16.2959 8.70037C16.652 8.34438 16.9345 7.92172 17.1273 7.45652C17.3201 6.99132 17.4193 6.4927 17.4193 5.98915C17.4193 5.4856 17.3201 4.98698 17.1273 4.52178C16.9345 4.05658 16.652 3.63392 16.2959 3.27794L16.2956 3.27769C15.9396 2.92154 15.517 2.63902 15.0518 2.44626C14.5866 2.25351 14.088 2.1543 13.5844 2.1543Z" fill="#555555"/>
</svg>
