<svg width="20" height="20" viewBox="0 0 20 20" fill="none" xmlns="http://www.w3.org/2000/svg">
<path fill-rule="evenodd" clip-rule="evenodd" d="M3.77899 12.946C4.54476 12.1802 5.58337 11.75 6.66634 11.75H13.333C14.416 11.75 15.4546 12.1802 16.2204 12.946C16.9861 13.7118 17.4163 14.7504 17.4163 15.8333V17.5C17.4163 17.9142 17.0806 18.25 16.6663 18.25C16.2521 18.25 15.9163 17.9142 15.9163 17.5V15.8333C15.9163 15.1482 15.6442 14.4911 15.1597 14.0066C14.6752 13.5222 14.0181 13.25 13.333 13.25H6.66634C5.9812 13.25 5.32412 13.5222 4.83965 14.0066C4.35518 14.4911 4.08301 15.1482 4.08301 15.8333V17.5C4.08301 17.9142 3.74722 18.25 3.33301 18.25C2.91879 18.25 2.58301 17.9142 2.58301 17.5V15.8333C2.58301 14.7504 3.01321 13.7118 3.77899 12.946Z" fill="#555555"/>
<path fill-rule="evenodd" clip-rule="evenodd" d="M10.0003 3.25C8.57359 3.25 7.41699 4.4066 7.41699 5.83333C7.41699 7.26007 8.57359 8.41667 10.0003 8.41667C11.4271 8.41667 12.5837 7.26007 12.5837 5.83333C12.5837 4.4066 11.4271 3.25 10.0003 3.25ZM5.91699 5.83333C5.91699 3.57817 7.74516 1.75 10.0003 1.75C12.2555 1.75 14.0837 3.57817 14.0837 5.83333C14.0837 8.0885 12.2555 9.91667 10.0003 9.91667C7.74516 9.91667 5.91699 8.0885 5.91699 5.83333Z" fill="#555555"/>
</svg>
